<!--?xml version="1.0" standalone="no"?-->
              <svg id="sw-js-blob-svg" viewBox="0 0 100 100" xmlns="http://www.w3.org/2000/svg" version="1.1">
                    <defs> 
                        <linearGradient id="sw-gradient" x1="0" x2="1" y1="1" y2="0">
                            <stop id="stop1" stop-color="rgba(248, 117, 55, 1)" offset="0%"></stop>
                            <stop id="stop2" stop-color="rgba(251, 168, 31, 1)" offset="100%"></stop>
                        </linearGradient>
                    </defs>
                <path fill="url(#sw-gradient)" d="M24.2,-37.2C30.8,-33.5,35,-25.7,37.8,-17.8C40.7,-9.9,42,-1.8,41.8,6.6C41.5,15,39.5,23.8,34.6,30.4C29.6,37,21.5,41.5,13.3,42.6C5.1,43.8,-3.2,41.7,-11.2,39C-19.2,36.3,-26.7,33,-31.7,27.4C-36.6,21.8,-38.9,13.8,-39,6.2C-39.1,-1.4,-37.1,-8.7,-33.5,-14.8C-29.9,-20.8,-24.7,-25.7,-18.9,-29.7C-13.1,-33.8,-6.5,-37.1,1.2,-38.9C8.8,-40.7,17.7,-41,24.2,-37.2Z" width="100%" height="100%" transform="translate(50 50)" stroke-width="0" style="transition: all 0.3s ease 0s;"></path>
              </svg>